<?xml version="1.0" encoding="utf-8"?>
<!-- Generator: Adobe Illustrator 19.0.0, SVG Export Plug-In . SVG Version: 6.00 Build 0)  -->
<svg version="1.1" id="레이어_1" xmlns="http://www.w3.org/2000/svg" xmlns:xlink="http://www.w3.org/1999/xlink" x="0px"
	 y="0px" viewBox="0 0 960 560" style="enable-background:new 0 0 960 560;" xml:space="preserve">
<style type="text/css">
	.st0{fill:#1890FF;}
</style>
<g id="XMLID_1_">
	<path id="XMLID_3_" class="st0" d="M304.3,261.2v-50.5h14v104.6h-14v-20.8l-15-47.6v68.4h-14V210.6h14L304.3,261.2z"/>
	<path id="XMLID_5_" class="st0" d="M347.6,315.2c-11.3,0-16.9-5.9-16.9-17.8v-68.9c0-11.9,5.6-17.9,16.7-17.9h13.4
		c11.2,0,16.7,6,16.7,17.9v68.9c0,11.8-5.6,17.8-16.9,17.8H347.6z M350.9,302.5h7.1c3.7,0,5.5-2,5.5-6.1v-67c0-4.1-2.1-6.1-6.3-6.1
		h-6.6c-4.1,0-6.1,2-6.1,6.1v67C344.7,300.5,346.7,302.5,350.9,302.5z"/>
	<path id="XMLID_8_" class="st0" d="M411.5,276.9v-12.7h21.3v51h-27.4c-10.8,0-16.2-5.9-16.2-17.6v-69c0-11.9,5.4-17.9,16.2-17.9
		h9.6c11.8,0,17.8,6.1,17.8,18.2v11.4h-14v-9.3c0-5-2-7.6-6-7.6h-3.5c-4.1,0-6.1,2.5-6.1,7.6v64.1c0,5,2,7.6,6.1,7.6h9.5v-25.6
		H411.5z"/>
	<path id="XMLID_10_" class="st0" d="M457.4,315.2h-14v-86.7c0-11.9,5.6-17.9,16.7-17.9h10.5c11.2,0,16.7,6,16.7,17.9v86.7h-14
		v-38.3h-16V315.2z M473.4,264.2v-34.8c0-4.1-2-6.1-6.1-6.1h-3.8c-4.1,0-6.1,2-6.1,6.1v34.8H473.4z"/>
	<path id="XMLID_13_" class="st0" d="M536.3,315.2h-14v-86.7c0-11.9,5.6-17.9,16.7-17.9h10.5c11.2,0,16.7,6,16.7,17.9v86.7h-14
		v-38.3h-16V315.2z M552.3,264.2v-34.8c0-4.1-2-6.1-6.1-6.1h-3.8c-4.1,0-6.1,2-6.1,6.1v34.8H552.3z"/>
	<path id="XMLID_16_" class="st0" d="M578.7,315.2V210.6H603c13.1,0,19.7,6.7,19.7,20.1V300c0,10.1-5.6,15.1-16.7,15.1H578.7z
		 M592.7,302.5h10.5c3.7,0,5.5-1.6,5.5-4.7v-67c0-5-2.1-7.6-6.3-7.6h-9.8V302.5z"/>
</g>
</svg>
